<svg width="1200" height="800" xmlns="http://www.w3.org/2000/svg">
  <!-- Background -->
  <rect width="1200" height="800" fill="#4f72c2"/>
  
  <!-- Sidebar -->
  <rect x="0" y="0" width="256" height="800" fill="#141A29"/>
  <rect x="16" y="32" width="224" height="48" rx="8" fill="#20242b"/>
  <text x="120" y="60" font-family="Arial" font-size="16" font-weight="bold" fill="#60A5FA" text-anchor="middle">Optofutureprep</text>
  
  <!-- Sidebar Navigation Items -->
  <rect x="16" y="120" width="224" height="48" rx="8" fill="#20242b"/>
  <circle cx="40" cy="144" r="12" fill="#60A5FA"/>
  <text x="60" y="150" font-family="Arial" font-size="14" fill="white">Home</text>
  
  <text x="16" y="200" font-family="Arial" font-size="10" fill="#9ca3af" font-weight="bold">STUDY</text>
  <rect x="16" y="220" width="224" height="48" rx="8" fill="#20242b"/>
  <circle cx="40" cy="244" r="12" fill="#9ca3af"/>
  <text x="60" y="250" font-family="Arial" font-size="14" fill="#d1d5db">Subjects</text>
  
  <!-- Main Content Area -->
  <rect x="256" y="0" width="944" height="800" fill="#4f72c2"/>
  
  <!-- Subject Header Banner -->
  <rect x="296" y="40" width="864" height="120" rx="12" fill="#b3d4f8"/>
  <text x="728" y="90" font-family="Arial" font-size="36" font-weight="bold" fill="#1f2937" text-anchor="middle">Biology</text>
  <text x="728" y="120" font-size="24">🧬</text>
  <text x="728" y="150" font-family="Arial" font-size="14" fill="#1f2937" text-anchor="middle">Remember, mitochondria is the powerhouse...</text>
  
  <!-- Main Card -->
  <rect x="296" y="200" width="864" height="560" rx="16" fill="white" stroke="#000" stroke-width="2"/>
  
  <!-- Test Selector (Left Panel) -->
  <rect x="296" y="200" width="346" height="560" fill="#1f2937"/>
  <rect x="320" y="240" width="298" height="40" fill="#374151"/>
  <text x="340" y="265" font-family="Arial" font-size="16" font-weight="bold" fill="#d1d5db">Practice Tests</text>
  
  <!-- Test Items -->
  <rect x="320" y="300" width="298" height="56" rx="4" fill="#b3d4f8" stroke="#4f72c2" stroke-width="4"/>
  <text x="340" y="330" font-family="Arial" font-size="18" font-weight="bold" fill="#1f2937">Practice Test</text>
  <text x="340" y="350" font-family="Arial" font-size="18" font-weight="bold" fill="#1f2937">1</text>
  <text x="580" y="335" font-family="Arial" font-size="14" fill="#1f2937">Attempt 3</text>
  
  <rect x="320" y="370" width="298" height="56" rx="4" fill="#374151"/>
  <text x="340" y="400" font-family="Arial" font-size="18" fill="#d1d5db">Practice Test</text>
  <text x="340" y="420" font-family="Arial" font-size="18" fill="#d1d5db">2</text>
  
  <!-- Detail Panel (Right) -->
  <rect x="642" y="240" width="518" height="80" fill="white"/>
  <text x="662" y="270" font-family="Arial" font-size="24" font-weight="bold" fill="#1f2937">Practice Test 1</text>
  <text x="1100" y="270" font-family="Arial" font-size="12" fill="#6b7280">Attempt Date: Nov 10, 2025</text>
  
  <!-- Stats Pills -->
  <rect x="662" y="340" width="150" height="100" rx="12" fill="white" stroke="#000" stroke-width="2"/>
  <text x="737" y="380" font-family="Arial" font-size="32" font-weight="bold" fill="#10b981" text-anchor="middle">400</text>
  <text x="737" y="410" font-family="Arial" font-size="10" fill="#6b7280" text-anchor="middle">SCORE</text>
  
  <rect x="832" y="340" width="150" height="100" rx="12" fill="white" stroke="#000" stroke-width="2"/>
  <text x="907" y="380" font-family="Arial" font-size="28" font-weight="bold" fill="#1f2937" text-anchor="middle">38/40</text>
  <text x="907" y="410" font-family="Arial" font-size="10" fill="#6b7280" text-anchor="middle">CORRECT/TOTAL</text>
  
  <rect x="1002" y="340" width="150" height="100" rx="12" fill="white" stroke="#000" stroke-width="2"/>
  <text x="1077" y="380" font-family="Arial" font-size="24" font-weight="bold" fill="#1f2937" text-anchor="middle">4m 00s</text>
  <text x="1077" y="410" font-family="Arial" font-size="10" fill="#6b7280" text-anchor="middle">TOTAL TIME</text>
  
  <!-- Topic Mastery Matrix -->
  <rect x="662" y="460" width="490" height="200" rx="12" fill="white" stroke="#e5e7eb" stroke-width="1"/>
  <text x="682" y="490" font-family="Arial" font-size="18" font-weight="bold" fill="#1f2937">Topic Mastery Matrix</text>
  
  <!-- Topic Row -->
  <rect x="682" y="510" width="450" height="32" rx="4" fill="#f3f4f6"/>
  <text x="692" y="530" font-family="Arial" font-size="14" font-weight="600" fill="#1f2937">Cell Biology</text>
  <rect x="500" y="518" width="100" height="16" rx="8" fill="#e5e7eb"/>
  <rect x="500" y="518" width="85" height="16" rx="8" fill="#10b981"/>
  <text x="610" y="530" font-family="Arial" font-size="12" font-weight="bold" fill="#10b981">85%</text>
  <text x="650" y="530" font-size="16">🔥</text>
  
  <!-- Action Buttons -->
  <rect x="1002" y="680" width="80" height="36" rx="6" fill="#ef4444"/>
  <text x="1042" y="700" font-family="Arial" font-size="12" font-weight="bold" fill="white" text-anchor="middle">Reset</text>
  
  <rect x="1092" y="680" width="80" height="36" rx="6" fill="#38bdf8"/>
  <text x="1132" y="700" font-family="Arial" font-size="12" font-weight="bold" fill="white" text-anchor="middle">Review</text>
  
  <rect x="1182" y="680" width="80" height="36" rx="6" fill="#6b7280"/>
  <text x="1222" y="700" font-family="Arial" font-size="12" font-weight="bold" fill="white" text-anchor="middle">Start</text>
  
  <!-- Watermark -->
  <text x="728" y="500" font-family="Arial" font-size="120" font-weight="900" fill="#b3d4f8" opacity="0.15" text-anchor="middle" transform="rotate(30 728 500)">OPTOFUTUREPREP</text>
</svg>

